<svg width="1351" height="554" viewBox="0 0 1351 554" fill="none" xmlns="http://www.w3.org/2000/svg">
<path d="M1257.5 168C1344.24 168 1445 330.537 1445 330.537V612H0V517.692C0 517.692 46.7069 524.651 66.1832 517.692C79.338 512.991 84.6893 510.74 98.7734 506.726C115.617 501.925 148.345 504.268 167.464 502.339C192.605 499.803 193.451 494.093 216.6 488.692C241.842 482.804 264.785 494.804 289.802 488.692C315.489 482.417 320.865 466.057 346.459 459.693C380.247 451.292 400.901 466.46 436.208 459.693C470.174 453.183 466.385 430.583 500.385 424.114C538.775 416.811 537.851 421.989 577.5 416.5C617.181 411.007 623.529 347.846 662.5 341.259C714.07 332.544 727.356 344.677 781.5 341.259C845.289 337.233 823.767 258.237 887 252.5C958.525 246.01 977.991 277.935 1050.5 275C1128.94 271.824 1178.78 168 1257.5 168Z" fill="#007495"/>
<g clip-path="url(#clip0)">
<path d="M1142.06 288.568C1142.06 281.143 1136.04 274.906 1127.97 273.109C1129.49 272.773 1131.04 272.532 1132.67 272.532C1122.34 272.532 1113.89 279.748 1113.89 288.569C1113.89 297.389 1122.34 304.604 1132.67 304.604C1131.04 304.604 1129.49 304.372 1127.97 304.028C1136.03 302.23 1142.06 295.992 1142.06 288.568Z" fill="white"/>
<path d="M1132.67 272.532C1131.04 272.532 1129.49 272.764 1127.97 273.108C1136.04 274.905 1142.06 281.143 1142.06 288.567C1142.06 295.992 1136.04 302.23 1127.97 304.026C1129.49 304.362 1131.04 304.603 1132.67 304.603C1143 304.603 1151.45 297.387 1151.45 288.567C1151.45 279.748 1143 272.532 1132.67 272.532Z" fill="#F4F4F4"/>
<path d="M1142.06 208.388C1142.06 200.963 1136.04 194.725 1127.97 192.929C1129.49 192.593 1131.04 192.351 1132.67 192.351C1122.34 192.351 1113.89 199.567 1113.89 208.388C1113.89 217.207 1122.34 224.424 1132.67 224.424C1131.04 224.424 1129.49 224.192 1127.97 223.846C1136.03 222.051 1142.06 215.812 1142.06 208.388Z" fill="white"/>
<path d="M1132.67 192.352C1131.04 192.352 1129.49 192.584 1127.97 192.93C1136.04 194.726 1142.06 200.964 1142.06 208.389C1142.06 215.813 1136.04 222.051 1127.97 223.847C1129.49 224.184 1131.04 224.425 1132.67 224.425C1143 224.425 1151.45 217.209 1151.45 208.389C1151.45 199.568 1143 192.352 1132.67 192.352Z" fill="#F4F4F4"/>
<path d="M1142.06 128.208C1142.06 120.784 1136.04 114.546 1127.97 112.749C1129.49 112.413 1131.04 112.172 1132.67 112.172C1122.34 112.172 1113.89 119.388 1113.89 128.208C1113.89 137.029 1122.34 144.245 1132.67 144.245C1131.04 144.245 1129.49 144.012 1127.97 143.667C1136.03 141.871 1142.06 135.633 1142.06 128.208Z" fill="white"/>
<path d="M1132.67 112.172C1131.04 112.172 1129.49 112.405 1127.97 112.748C1136.04 114.545 1142.06 120.783 1142.06 128.207C1142.06 135.632 1136.04 141.87 1127.97 143.666C1129.49 144.002 1131.04 144.244 1132.67 144.244C1143 144.244 1151.45 137.028 1151.45 128.207C1151.45 119.389 1143 112.172 1132.67 112.172Z" fill="#F4F4F4"/>
<path d="M1132.67 96.1361C1111.92 96.1361 1095.11 110.488 1095.11 128.208C1095.11 145.928 1111.92 160.28 1132.67 160.28C1153.42 160.28 1170.23 145.928 1170.23 128.208C1170.23 110.488 1153.42 96.1361 1132.67 96.1361ZM1132.67 144.244C1131.82 144.244 1131.07 144.164 1130.32 144.083C1129.48 144.003 1128.73 143.922 1127.97 143.682C1119.9 141.918 1113.89 135.664 1113.89 128.207C1113.89 120.751 1119.9 114.497 1127.97 112.732C1128.73 112.492 1129.48 112.412 1130.32 112.331C1131.07 112.251 1131.82 112.171 1132.67 112.171C1143 112.171 1151.45 119.387 1151.45 128.207C1151.45 137.028 1143 144.244 1132.67 144.244Z" fill="black"/>
<path d="M1132.67 176.316C1111.92 176.316 1095.11 190.668 1095.11 208.388C1095.11 226.108 1111.92 240.46 1132.67 240.46C1153.42 240.46 1170.23 226.108 1170.23 208.388C1170.23 190.668 1153.42 176.316 1132.67 176.316ZM1132.67 224.424C1131.82 224.424 1131.07 224.344 1130.32 224.263C1129.48 224.184 1128.73 224.103 1127.97 223.862C1119.9 222.098 1113.89 215.844 1113.89 208.388C1113.89 200.931 1119.9 194.677 1127.97 192.913C1128.73 192.672 1129.48 192.593 1130.32 192.512C1131.07 192.432 1131.82 192.351 1132.67 192.351C1143 192.351 1151.45 199.567 1151.45 208.388C1151.45 217.208 1143 224.424 1132.67 224.424Z" fill="black"/>
<path d="M1132.67 256.496C1111.92 256.496 1095.11 270.848 1095.11 288.568C1095.11 306.288 1111.92 320.64 1132.67 320.64C1153.42 320.64 1170.23 306.288 1170.23 288.568C1170.23 270.848 1153.42 256.496 1132.67 256.496ZM1132.67 304.604C1131.82 304.604 1131.07 304.524 1130.32 304.443C1129.48 304.363 1128.73 304.282 1127.97 304.042C1119.9 302.277 1113.89 296.024 1113.89 288.567C1113.89 281.111 1119.9 274.857 1127.97 273.092C1128.73 272.852 1129.48 272.772 1130.32 272.691C1131.07 272.611 1131.82 272.531 1132.67 272.531C1143 272.531 1151.45 279.747 1151.45 288.567C1151.45 297.388 1143 304.604 1132.67 304.604Z" fill="black"/>
<path d="M1205.55 420.161C1204.98 422.246 1204.48 424.33 1203.92 426.495L1177.8 367.563C1183.78 339.66 1188.12 313.441 1191.11 288.986C1232.81 313.602 1220.14 363.072 1205.55 420.161Z" fill="#FF640C"/>
<path d="M1087.78 367.177L1061.66 426.109C1061.09 423.944 1060.59 421.86 1060.02 419.775C1045.43 362.687 1032.77 313.216 1074.47 288.6C1077.46 313.055 1081.8 339.274 1087.78 367.177Z" fill="#FF640C"/>
<path d="M1133.02 19.8845C1131.23 21.6488 1129.36 23.5728 1127.48 25.6574C1127.01 26.1384 1126.54 26.7002 1125.98 27.261C1085.97 71.6004 1028.13 175.354 1084.09 376.766H1181.94C1241.29 163.327 1172.74 59.4937 1133.02 19.8845ZM1133.02 320.64C1112.27 320.64 1095.46 306.288 1095.46 288.568C1095.46 270.848 1112.27 256.496 1133.02 256.496C1153.77 256.496 1170.58 270.848 1170.58 288.568C1170.58 306.288 1153.77 320.64 1133.02 320.64ZM1133.02 240.46C1112.27 240.46 1095.46 226.108 1095.46 208.388C1095.46 190.668 1112.27 176.316 1133.02 176.316C1153.77 176.316 1170.58 190.668 1170.58 208.388C1170.58 226.108 1153.77 240.46 1133.02 240.46ZM1133.02 160.28C1112.27 160.28 1095.46 145.928 1095.46 128.208C1095.46 110.488 1112.27 96.1361 1133.02 96.1361C1153.77 96.1361 1170.58 110.488 1170.58 128.208C1170.58 145.928 1153.77 160.28 1133.02 160.28Z" fill="#053E4E"/>
<path d="M1132.67 19.8845C1131.2 21.3519 1129.67 22.9311 1128.12 24.5911C1128.07 24.655 1128.01 24.7198 1127.95 24.7753C1126.42 26.4193 1124.87 28.1507 1123.28 29.9629C1163.21 75.7622 1217.7 179.362 1162.81 376.757H1181.59C1240.94 163.327 1172.39 59.4937 1132.67 19.8845Z" fill="#092B35"/>
<path d="M1107.12 388.187C1104.89 388.187 1103.12 393.066 1103.12 398.982V453.268C1103.12 459.289 1104.93 464.063 1107.12 464.063C1109.32 464.063 1111.13 459.185 1111.13 453.268V398.982C1111.17 392.962 1109.36 388.187 1107.12 388.187Z" fill="#AAAAAA"/>
<path d="M1133.19 388.187C1130.95 388.187 1129.18 393.066 1129.18 398.982V453.268C1129.18 459.289 1130.99 464.063 1133.19 464.063C1135.38 464.063 1137.2 459.185 1137.2 453.268V398.982C1137.23 392.962 1135.42 388.187 1133.19 388.187Z" fill="#AAAAAA"/>
<path d="M1159.25 388.187C1157.01 388.187 1155.24 393.066 1155.24 398.982V453.268C1155.24 459.289 1157.05 464.063 1159.25 464.063C1161.45 464.063 1163.26 459.185 1163.26 453.268V398.982C1163.3 392.962 1161.48 388.187 1159.25 388.187Z" fill="#AAAAAA"/>
</g>
<defs>
<clipPath id="clip0">
<rect width="563.339" height="481" fill="white" transform="translate(851)"/>
</clipPath>
</defs>
</svg>
